<svg width="144" height="144" viewBox="0 0 144 144" fill="none" xmlns="http://www.w3.org/2000/svg">
<path d="M58.4 75.08C59.2 72.12 60.2 69.08 61.4 65.96C62.68 62.76 64 59.6 65.36 56.48C66.8 53.36 68.24 50.32 69.68 47.36C71.12 44.4 72.48 41.6 73.76 38.96C70 41.28 66.2 44.08 62.36 47.36C58.6 50.64 54.92 54.28 51.32 58.28C47.72 62.28 44.32 66.6 41.12 71.24C37.92 75.88 35.04 80.72 32.48 85.76C30 90.72 27.96 95.84 26.36 101.12C24.76 106.4 23.76 111.72 23.36 117.08C22.96 117.96 22.48 118.4 21.92 118.4C21.36 118.48 20.72 118.44 20 118.28C18.16 117.8 16.96 116.44 16.4 114.2C15.84 112.04 15.68 109.52 15.92 106.64C16.16 103.68 16.64 100.64 17.36 97.52C18.16 94.4 18.92 91.64 19.64 89.24C21.64 82.84 23.8 76.88 26.12 71.36C28.52 65.84 31 60.44 33.56 55.16C36.12 49.88 38.68 44.6 41.24 39.32C43.88 34.04 46.44 28.4 48.92 22.4C49.4 21.92 50.2 21.88 51.32 22.28C52.52 22.6 53.72 23.16 54.92 23.96C56.12 24.76 57.2 25.72 58.16 26.84C59.12 27.88 59.6 28.88 59.6 29.84C59.6 30.88 59.12 32.44 58.16 34.52C57.2 36.52 56.04 38.76 54.68 41.24C53.4 43.64 52.04 46.16 50.6 48.8C49.24 51.36 48.12 53.72 47.24 55.88C52.12 50.6 57.04 45.56 62 40.76C66.96 35.96 72.32 31.76 78.08 28.16C79.44 27.44 80.72 27.28 81.92 27.68C83.2 28.08 84.24 28.84 85.04 29.96C85.84 31 86.4 32.28 86.72 33.8C87.04 35.24 86.96 36.64 86.48 38C85.84 39.52 85.04 41.48 84.08 43.88C83.12 46.2 82.12 48.64 81.08 51.2C80.04 53.76 79.04 56.24 78.08 58.64C77.12 61.04 76.36 62.96 75.8 64.4C78.28 61.2 81.36 57.8 85.04 54.2C88.72 50.6 92.48 47.16 96.32 43.88C100.16 40.52 103.84 37.48 107.36 34.76C110.88 31.96 113.8 29.76 116.12 28.16C117.24 27.36 118.44 27.44 119.72 28.4C121.08 29.36 122.24 30.64 123.2 32.24C124.16 33.76 124.76 35.32 125 36.92C125.32 38.52 125.08 39.56 124.28 40.04C120.44 46.6 117.04 52.68 114.08 58.28C111.2 63.88 108.72 69.48 106.64 75.08C104.64 80.68 103.12 86.44 102.08 92.36C101.12 98.28 100.64 104.8 100.64 111.92C100.64 112.32 100.44 112.56 100.04 112.64C99.64 112.8 99.32 112.88 99.08 112.88C97.72 112.8 96.56 112.6 95.6 112.28C94.72 111.96 93.92 111.52 93.2 110.96C90.8 109.04 89.4 106.16 89 102.32C88.68 98.48 89 94.2 89.96 89.48C91 84.76 92.48 79.8 94.4 74.6C96.32 69.4 98.36 64.48 100.52 59.84C102.76 55.12 104.92 50.92 107 47.24C109.08 43.56 110.72 40.84 111.92 39.08C108.32 41.24 104.48 44.16 100.4 47.84C96.4 51.44 92.4 55.32 88.4 59.48C84.48 63.64 80.72 67.88 77.12 72.2C73.6 76.52 70.6 80.4 68.12 83.84C67.32 84.16 66.32 84.2 65.12 83.96C64 83.64 62.88 83.08 61.76 82.28C60.72 81.48 59.84 80.48 59.12 79.28C58.48 78.08 58.24 76.68 58.4 75.08Z" fill="#000"/>
</svg>
