<svg viewBox="0 0 133 27" fill="none" xmlns="http://www.w3.org/2000/svg">
<g clip-path="url(#clip0)">
<path d="M11.5333 13.5387C11.75 12.8253 12.0208 12.0928 12.3457 11.341C12.6923 10.5698 13.0498 9.80843 13.4181 9.0566C13.8081 8.30478 14.1981 7.57224 14.588 6.85896C14.978 6.14569 15.3463 5.47097 15.6929 4.83482C14.6746 5.39387 13.6456 6.06858 12.6057 6.85896C11.5874 7.64934 10.5909 8.52647 9.61593 9.49035C8.64102 10.4543 7.72026 11.4952 6.85367 12.6133C5.98708 13.7314 5.20715 14.8977 4.51387 16.1122C3.84226 17.3074 3.2898 18.5411 2.85651 19.8135C2.42322 21.0858 2.1524 22.3678 2.04407 23.6594C1.93575 23.8714 1.80576 23.9774 1.65411 23.9774C1.50246 23.9967 1.32914 23.9871 1.13415 23.9485C0.635863 23.8328 0.31089 23.5051 0.159237 22.9653C0.00758266 22.4449 -0.035747 21.8376 0.0292476 21.1436C0.094242 20.4304 0.224232 19.6978 0.419214 18.9459C0.635863 18.1942 0.841679 17.5291 1.03666 16.9508C1.57829 15.4085 2.16323 13.9724 2.79151 12.6423C3.44146 11.3121 4.11307 10.0108 4.80635 8.73852C5.49961 7.4662 6.19289 6.19389 6.88617 4.92157C7.6011 3.64924 8.29438 2.29017 8.96598 0.844359C9.09598 0.728694 9.31262 0.719055 9.61593 0.815443C9.9409 0.892553 10.2659 1.0275 10.5909 1.22028C10.9158 1.41305 11.2083 1.64438 11.4683 1.91427C11.7283 2.16487 11.8582 2.40585 11.8582 2.63717C11.8582 2.88778 11.7283 3.26369 11.4683 3.76491C11.2083 4.24685 10.8942 4.78663 10.5259 5.38423C10.1792 5.96255 9.81091 6.56979 9.42095 7.20596C9.05265 7.82284 8.74934 8.39153 8.51102 8.91202C9.83258 7.6397 11.165 6.42522 12.5082 5.26856C13.8515 4.11191 15.303 3.09984 16.8628 2.23235C17.2311 2.05885 17.5778 2.02029 17.9027 2.11668C18.2493 2.21307 18.531 2.3962 18.7477 2.66608C18.9643 2.9167 19.116 3.22514 19.2027 3.59142C19.2893 3.93841 19.2676 4.27576 19.1376 4.60349C18.9643 4.96976 18.7477 5.44206 18.4877 6.02039C18.2277 6.57944 17.9568 7.16741 17.6753 7.78429C17.3937 8.40117 17.1228 8.99877 16.8628 9.5771C16.6028 10.1554 16.3971 10.6181 16.2453 10.9651C16.917 10.194 17.7511 9.37469 18.7477 8.50719C19.7443 7.6397 20.7625 6.81077 21.8024 6.02039C22.8423 5.21073 23.8389 4.47818 24.7921 3.82275C25.7454 3.14803 26.5362 2.6179 27.1644 2.23235C27.4678 2.03957 27.7927 2.05885 28.1393 2.29017C28.5076 2.52151 28.8218 2.82995 29.0818 3.2155C29.3417 3.58177 29.5042 3.95768 29.5693 4.34324C29.6559 4.72879 29.591 4.97939 29.3743 5.09507C28.3343 6.67583 27.4135 8.14092 26.612 9.49035C25.8321 10.8398 25.1604 12.1892 24.5971 13.5387C24.0555 14.8881 23.6439 16.2761 23.3623 17.7026C23.1023 19.1291 22.9723 20.7003 22.9723 22.416C22.9723 22.5123 22.9182 22.5702 22.8098 22.5894C22.7015 22.628 22.6148 22.6473 22.5498 22.6473C22.1815 22.628 21.8673 22.5798 21.6074 22.5027C21.3691 22.4256 21.1524 22.3196 20.9574 22.1846C20.3076 21.7219 19.9284 21.028 19.8201 20.1027C19.7334 19.1773 19.8201 18.1459 20.08 17.0086C20.3617 15.8712 20.7625 14.676 21.2825 13.423C21.8024 12.1699 22.3548 10.9844 22.9398 9.86627C23.5464 8.72888 24.1314 7.71681 24.6946 6.83004C25.2579 5.94327 25.702 5.28784 26.0271 4.86373C25.0521 5.38423 24.0122 6.08786 22.9073 6.97463C21.8241 7.84211 20.7408 8.77708 19.6576 9.77952C18.596 10.7819 17.5778 11.8037 16.6028 12.8446C15.6496 13.8856 14.8372 14.8206 14.1655 15.6495C13.9488 15.7267 13.678 15.7363 13.3531 15.6785C13.0498 15.6013 12.7465 15.4664 12.4432 15.2736C12.1615 15.0808 11.9233 14.8399 11.7283 14.5507C11.555 14.2615 11.4899 13.9242 11.5333 13.5387ZM42.5465 16.2857H42.579V16.517C42.3623 17.211 42.0265 17.8375 41.5716 18.3966C41.3983 18.5893 41.1816 18.8689 40.9216 19.2352C40.6833 19.5822 40.4667 19.8616 40.2717 20.0737C39.8167 20.5171 39.3834 20.9123 38.9717 21.2593C38.5818 21.587 38.1052 21.8858 37.5419 22.1557C37.2819 22.2714 36.9894 22.3678 36.6642 22.4449C36.3612 22.5412 36.0471 22.5894 35.722 22.5894C35.4187 22.5894 35.1263 22.5412 34.8447 22.4449C34.563 22.3485 34.3246 22.175 34.1297 21.9244C33.7829 21.5389 33.5879 21.0858 33.5446 20.5653C33.5229 20.0255 33.6313 19.4761 33.8697 18.9171C33.8262 18.9556 33.7612 19.0134 33.6745 19.0906C33.5879 19.1677 33.4904 19.2545 33.382 19.3509C33.2738 19.4472 33.1655 19.5436 33.0571 19.64C32.9705 19.7171 32.9055 19.7653 32.8621 19.7846C32.5372 20.0737 32.2122 20.3243 31.8872 20.5364C31.5622 20.7484 31.2264 20.9316 30.8798 21.0858C30.5982 21.2014 30.349 21.2689 30.1323 21.2882C29.9373 21.3075 29.7532 21.2786 29.5799 21.2014C29.4066 21.1051 29.2333 20.9702 29.06 20.7966C28.9083 20.6232 28.7349 20.4207 28.54 20.1894C28.2584 19.8424 28.0525 19.505 27.9225 19.1773C27.7709 18.8304 27.7383 18.4641 27.825 18.0785C27.8684 17.9436 27.9118 17.8086 27.955 17.6736C27.9767 17.5388 28.02 17.4134 28.0851 17.2977C28.215 16.97 28.3666 16.5942 28.54 16.1701C28.7349 15.7459 28.9299 15.3218 29.1249 14.8977C29.3199 14.4736 29.5041 14.0785 29.6774 13.7121C29.8724 13.3266 30.0348 13.0182 30.1649 12.7868C30.3165 12.4398 30.544 12.2664 30.8473 12.2664C31.1506 12.2664 31.4214 12.3723 31.6597 12.5844C31.9197 12.7964 32.1147 13.076 32.2447 13.423C32.3746 13.7699 32.3422 14.1073 32.1472 14.4351C32.0388 14.6664 31.8764 14.9941 31.6597 15.4182C31.4431 15.8424 31.2156 16.2857 30.9773 16.7483C30.7606 17.1917 30.5656 17.6158 30.3923 18.0207C30.219 18.4255 30.1215 18.7243 30.0998 18.9171C30.0998 19.3412 30.1865 19.5629 30.3599 19.5822C30.5548 19.6014 30.804 19.4954 31.1072 19.2641C31.4323 19.0327 31.7789 18.7147 32.1472 18.3098C32.5372 17.8857 32.9271 17.4424 33.3171 16.9797C33.7071 16.517 34.0647 16.0736 34.3897 15.6495C34.7363 15.2062 35.0288 14.8495 35.2671 14.5796C35.5704 14.0976 35.8195 13.6735 36.0145 13.3073C36.2312 12.9217 36.5453 12.5458 36.957 12.1796C37.1736 12.1025 37.4335 12.1217 37.7369 12.2374C38.0402 12.3337 38.311 12.488 38.5493 12.7001C38.7876 12.9121 38.9502 13.1531 39.0368 13.423C39.145 13.6735 39.1235 13.8953 38.9717 14.088C38.5818 14.5314 38.2244 14.9074 37.8993 15.2158C37.5961 15.5242 37.3036 15.9194 37.022 16.4013C36.8702 16.7098 36.6969 17.0568 36.502 17.4424C36.307 17.8086 36.1229 18.1942 35.9496 18.599C35.7978 18.9845 35.6679 19.3702 35.5596 19.7557C35.4729 20.1219 35.4512 20.4496 35.4946 20.7388C35.4946 21.0666 35.6788 21.2014 36.0471 21.1436C36.567 21.0666 37.1412 20.8255 37.7694 20.4207C38.3977 19.9966 39.0151 19.5243 39.6217 19.0038C40.2284 18.4641 40.7916 17.9436 41.3116 17.4424C41.8315 16.9218 42.2431 16.5363 42.5465 16.2857ZM43.1131 18.599C42.6798 18.0592 42.2466 17.5098 41.8133 16.9508C41.4016 16.3917 41.1954 15.7749 41.1954 15.1001C41.1954 14.3483 41.4342 13.6446 41.9107 12.9892C42.409 12.3146 42.9723 11.7748 43.6006 11.3699C43.8606 11.2157 44.1205 11.0904 44.3805 10.9941C44.6622 10.8976 44.9547 10.9073 45.258 11.0229C45.3879 11.0807 45.518 11.1289 45.6479 11.1675C45.7996 11.1868 45.9295 11.2157 46.0375 11.2543C46.1462 11.2928 46.2654 11.3507 46.3953 11.4278C46.5254 11.5048 46.5903 11.6109 46.5903 11.7458C46.5903 12.2856 46.6012 12.729 46.6229 13.076C46.6662 13.4037 46.7204 13.6928 46.7853 13.9435C46.8503 14.1748 46.9153 14.3869 46.9803 14.5796C47.0453 14.7531 47.1103 14.9459 47.1753 15.1579C47.2186 15.3508 47.2078 15.5146 47.1428 15.6495C47.0778 15.7845 46.9153 15.8038 46.6553 15.7074C46.1787 15.5531 45.8212 15.2447 45.5829 14.7821C45.3662 14.3194 45.2038 13.8953 45.0954 13.5097C45.0738 13.4326 45.0196 13.2976 44.933 13.1049C44.8463 12.9121 44.7922 12.7771 44.7705 12.7001C44.5972 12.6615 44.3913 12.7194 44.1531 12.8735C43.9147 13.0085 43.6981 13.2013 43.5031 13.4519C43.3298 13.7025 43.2106 13.9917 43.1457 14.3194C43.1023 14.6471 43.1781 14.9748 43.3731 15.3026C43.4597 15.4182 43.5789 15.5628 43.7305 15.7363C43.9038 15.8905 44.0664 16.0544 44.218 16.2279C44.3913 16.4013 44.5538 16.5749 44.7055 16.7483C44.8788 16.9026 45.0196 17.0279 45.128 17.1243C45.258 17.2399 45.3447 17.3074 45.3879 17.3267C45.4313 17.3267 45.5397 17.2977 45.713 17.2399C45.9295 17.1436 46.2546 17.0183 46.6878 16.864C47.1428 16.7098 47.6086 16.5556 48.0853 16.4013C48.5835 16.2472 49.0493 16.1218 49.4826 16.0254C49.9375 15.9097 50.2842 15.8519 50.5225 15.8519C50.6742 15.8519 50.7825 15.9001 50.8475 15.9965C50.9124 16.0544 50.9017 16.1315 50.8147 16.2279C50.7284 16.3242 50.6092 16.4206 50.4576 16.517C50.3275 16.6134 50.1867 16.7002 50.035 16.7772C49.8834 16.8544 49.7859 16.9026 49.7425 16.9218C49.3742 17.1147 48.9085 17.3363 48.3452 17.587C47.7819 17.8183 47.2944 18.0496 46.8828 18.2809C46.8395 18.3195 46.7528 18.3581 46.6229 18.3966C46.5145 18.4352 46.4279 18.4737 46.3628 18.5122C46.6229 19.0327 46.807 19.4857 46.9153 19.8713C47.0236 20.2376 47.0562 20.5943 47.0128 20.9412C46.9912 21.2882 46.9153 21.6352 46.7853 21.9823C46.6553 22.3485 46.482 22.763 46.2654 23.2256C45.9621 23.669 45.6479 24.0931 45.323 24.4979C45.0196 24.9028 44.673 25.269 44.283 25.5967C43.8931 25.9245 43.4706 26.1847 43.0156 26.3775C42.5607 26.5703 42.0624 26.6667 41.5208 26.6667C41.2175 26.6667 40.9246 26.6281 40.643 26.551C40.3614 26.4931 40.123 26.3583 39.928 26.1462C39.4298 25.6642 39.1482 25.1341 39.0832 24.5558C39.0181 23.9967 39.0723 23.4376 39.2457 22.8787C39.3756 22.5316 39.5382 22.2135 39.733 21.9244C40.2097 21.1918 40.7296 20.575 41.2933 20.0737C41.8783 19.5532 42.4848 19.0616 43.1131 18.599ZM44.218 19.9002C43.9798 20.1123 43.6547 20.4207 43.2432 20.8255C42.8315 21.2111 42.4416 21.6352 42.0733 22.0978C41.7265 22.5605 41.445 23.0135 41.228 23.4569C40.9897 23.9196 40.9246 24.3148 41.033 24.6426C41.4666 24.469 41.9107 24.1799 42.3657 23.7751C42.8206 23.3894 43.2215 22.9557 43.5681 22.4737C43.9147 22.0112 44.1531 21.5485 44.283 21.0858C44.4347 20.6232 44.413 20.228 44.218 19.9002ZM49.3008 19.3798C49.2575 18.6472 49.3441 17.8857 49.5608 17.0954C49.7775 16.3049 50.1024 15.5821 50.5357 14.9267C50.969 14.2519 51.5106 13.7025 52.1605 13.2784C52.8322 12.8543 53.6121 12.6326 54.5004 12.6133C54.9554 12.7097 55.302 12.9121 55.5403 13.2205C55.8002 13.529 55.876 13.9049 55.7678 14.3483C55.6812 14.7724 55.5511 15.1387 55.3778 15.4471C55.2262 15.7363 54.9554 16.0447 54.5654 16.3724C54.3704 16.5267 54.0996 16.7291 53.753 16.9797C53.4063 17.2303 53.0705 17.4906 52.7455 17.7604C52.4205 18.0304 52.139 18.3098 51.9006 18.599C51.6623 18.8689 51.5431 19.1002 51.5431 19.293C51.4782 19.7943 51.5648 20.1219 51.8031 20.2761C52.0415 20.4111 52.3447 20.4689 52.713 20.4496C53.103 20.4111 53.493 20.3147 53.8829 20.1605C54.2729 20.0063 54.5871 19.8713 54.8253 19.7557C55.107 19.5822 55.4211 19.3702 55.7678 19.1195C56.1144 18.8496 56.461 18.5701 56.8077 18.2809C57.1543 17.9918 57.4902 17.7122 57.8151 17.4424C58.1401 17.1724 58.4109 16.9508 58.6275 16.7772C58.8008 16.6231 58.9525 16.4785 59.0825 16.3435C59.2342 16.2086 59.4075 16.0929 59.6025 15.9965C59.7758 15.9579 59.9057 15.9483 59.9924 15.9676C60.1007 15.9869 60.0899 16.1315 59.96 16.4013C59.7865 16.7291 59.57 17.0375 59.31 17.3267C59.0716 17.6158 58.8117 17.905 58.53 18.1942C58.1401 18.5797 57.7176 18.9845 57.2626 19.4086C56.8293 19.8327 56.3635 20.228 55.8653 20.5943C55.3887 20.9412 54.8795 21.2496 54.3378 21.5196C53.8179 21.7702 53.2763 21.934 52.713 22.0112C51.7164 22.0689 50.8932 21.8858 50.2432 21.4617C49.6149 21.0376 49.3008 20.3436 49.3008 19.3798ZM54.5004 13.9435C53.9154 14.1362 53.4496 14.3869 53.103 14.6953C52.7781 15.0037 52.5397 15.4567 52.3881 16.0544C52.8647 15.7459 53.2872 15.4374 53.6555 15.129C54.0455 14.8013 54.3271 14.4062 54.5004 13.9435ZM58.6803 9.80843C58.702 8.74816 58.9728 7.79393 59.4928 6.94571C60.0127 6.0975 60.6952 5.35531 61.54 4.71915C62.4067 4.06371 63.3816 3.51431 64.4648 3.07092C65.5697 2.60826 66.7072 2.24198 67.8771 1.97209C69.047 1.68293 70.206 1.47088 71.3543 1.33594C72.5025 1.20099 73.5532 1.13352 74.5065 1.13352C75.5031 1.13352 76.543 1.20099 77.6263 1.33594C78.7095 1.47088 79.7493 1.68293 80.7459 1.97209C81.7425 2.24198 82.6633 2.60826 83.5082 3.07092C84.3748 3.51431 85.079 4.06371 85.6206 4.71915C86.1622 5.35531 86.5088 6.10714 86.6604 6.97463C86.8338 7.82284 86.7362 8.79636 86.3679 9.89518C85.9997 10.9362 85.3713 11.8807 84.4831 12.729C83.5949 13.5772 82.5658 14.3194 81.3959 14.9556C80.226 15.5724 78.9695 16.0833 77.6263 16.4881C76.3047 16.8929 75.0047 17.1629 73.7266 17.2977C72.47 17.4327 71.3001 17.4424 70.2168 17.3267C69.1336 17.1917 68.267 16.9122 67.6171 16.4881C67.3572 16.9893 67.0862 17.5002 66.8047 18.0207C66.523 18.5411 66.2414 19.1098 65.9597 19.7268C65.6998 20.3243 65.429 20.9798 65.1473 21.693C64.8873 22.4064 64.6381 23.1967 64.3998 24.0642C64.3566 24.1799 64.3132 24.2955 64.2698 24.4112C64.2265 24.5462 64.1724 24.6522 64.1073 24.7292C64.0424 24.8064 63.9666 24.8353 63.8799 24.816C63.7933 24.816 63.7066 24.7292 63.62 24.5558C63.3166 24.0546 63.1433 23.4087 63.0999 22.6184C63.0567 21.828 63.0999 20.9991 63.23 20.1316C63.3816 19.2641 63.5983 18.4159 63.8799 17.587C64.1616 16.7579 64.4757 16.0351 64.8223 15.4182C64.9089 15.3026 64.974 15.1869 65.0173 15.0712C65.0607 14.9556 65.0173 14.8495 64.8873 14.7531C64.0857 14.811 63.3275 14.7146 62.6125 14.464C61.8976 14.2133 61.2585 13.8567 60.6952 13.3941C60.1319 12.9314 59.6661 12.3916 59.2978 11.7748C58.9512 11.1386 58.7453 10.4832 58.6803 9.80843ZM80.9735 11.3989C82.1433 10.4928 82.9558 9.6542 83.4107 8.88311C83.8657 8.09273 84.039 7.37946 83.9306 6.74329C83.844 6.10714 83.5191 5.54808 82.9558 5.06614C82.3925 4.56493 81.6884 4.15046 80.8434 3.82275C80.0202 3.49503 79.0778 3.26369 78.0162 3.12875C76.9763 2.97453 75.9255 2.9167 74.864 2.95525C73.4991 3.01309 72.1125 3.18658 70.7043 3.47574C69.3178 3.74563 68.0395 4.13119 66.8697 4.6324C65.7213 5.11434 64.7356 5.72159 63.9123 6.45413C63.1108 7.1674 62.6125 7.99634 62.4175 8.94093C62.2442 9.75059 62.385 10.5698 62.84 11.3989C63.3166 12.2278 64.194 12.9603 65.4722 13.5965C66.0138 12.4784 66.458 11.5916 66.8047 10.9362C67.1513 10.2614 67.4221 9.74095 67.6171 9.37469C67.8121 8.98913 67.9529 8.70961 68.0395 8.53611C68.1479 8.36261 68.2454 8.20839 68.332 8.07345C68.527 7.82284 68.7978 7.73609 69.1445 7.8132C69.5128 7.89031 69.8485 8.0638 70.1519 8.33369C70.4768 8.58431 70.7259 8.90238 70.8993 9.28794C71.0727 9.65421 71.0727 10.0108 70.8993 10.3578C70.661 10.8205 70.4335 11.2446 70.2168 11.6302C70.0002 11.9964 69.7944 12.3627 69.5994 12.729C69.4044 13.076 69.1986 13.4423 68.982 13.8278C68.7653 14.194 68.5379 14.6085 68.2995 15.0712C69.1662 15.0519 70.1627 14.9652 71.2892 14.811C72.4375 14.6567 73.5966 14.4351 74.7665 14.1458C75.9363 13.8374 77.063 13.4615 78.1462 13.0182C79.2294 12.5555 80.1719 12.0157 80.9735 11.3989ZM85.543 19.3798C85.4996 18.6472 85.5863 17.8857 85.803 17.0954C86.0197 16.3049 86.3446 15.5821 86.7779 14.9267C87.2113 14.2519 87.7529 13.7025 88.4028 13.2784C89.0744 12.8543 89.8544 12.6326 90.7426 12.6133C91.1976 12.7097 91.5442 12.9121 91.7825 13.2205C92.0424 13.529 92.1183 13.9049 92.01 14.3483C91.9233 14.7724 91.7933 15.1387 91.62 15.4471C91.4684 15.7363 91.1976 16.0447 90.8076 16.3724C90.6126 16.5267 90.3418 16.7291 89.9951 16.9797C89.6485 17.2303 89.3128 17.4906 88.9877 17.7604C88.6628 18.0304 88.3812 18.3098 88.1428 18.599C87.9045 18.8689 87.7853 19.1002 87.7853 19.293C87.7203 19.7943 87.807 20.1219 88.0453 20.2761C88.2837 20.4111 88.587 20.4689 88.9552 20.4496C89.3452 20.4111 89.7352 20.3147 90.1252 20.1605C90.5151 20.0063 90.8293 19.8713 91.0675 19.7557C91.3492 19.5822 91.6634 19.3702 92.01 19.1195C92.3566 18.8496 92.7032 18.5701 93.0499 18.2809C93.3966 17.9918 93.7323 17.7122 94.0573 17.4424C94.3823 17.1724 94.6531 16.9508 94.8697 16.7772C95.0431 16.6231 95.1947 16.4785 95.3247 16.3435C95.4764 16.2086 95.6497 16.0929 95.8447 15.9965C96.018 15.9579 96.1479 15.9483 96.2346 15.9676C96.3429 15.9869 96.3321 16.1315 96.2021 16.4013C96.0288 16.7291 95.8121 17.0375 95.5522 17.3267C95.3139 17.6158 95.0538 17.905 94.7722 18.1942C94.3823 18.5797 93.9598 18.9845 93.5048 19.4086C93.0715 19.8327 92.6057 20.228 92.1075 20.5943C91.6308 20.9412 91.1218 21.2496 90.5802 21.5196C90.0601 21.7702 89.5185 21.934 88.9552 22.0112C87.9586 22.0689 87.1353 21.8858 86.4855 21.4617C85.8571 21.0376 85.543 20.3436 85.543 19.3798ZM90.7426 13.9435C90.1576 14.1362 89.6918 14.3869 89.3452 14.6953C89.0203 15.0037 88.7819 15.4567 88.6303 16.0544C89.1069 15.7459 89.5293 15.4374 89.8977 15.129C90.2877 14.8013 90.5693 14.4062 90.7426 13.9435ZM98.9197 20.1894C98.7247 20.3243 98.5081 20.4786 98.2697 20.6521C98.0315 20.8063 97.7715 20.9509 97.4899 21.0858C97.2082 21.2014 96.9048 21.2978 96.5799 21.375C96.2766 21.4328 95.9517 21.4328 95.605 21.375C95.345 21.3364 95.1067 21.2593 94.8901 21.1436C94.6734 21.0087 94.4676 20.8545 94.2726 20.681C94.0776 20.5075 93.9585 20.2569 93.9151 19.9291C93.8718 19.6014 93.861 19.3412 93.8827 19.1484C93.9909 18.6472 94.1427 18.117 94.3377 17.5581C94.5325 16.999 94.7709 16.4495 95.0526 15.9097C95.5291 15.023 96.1358 14.2326 96.8724 13.5387C97.609 12.8446 98.4973 12.4012 99.5371 12.2085C99.8839 12.1314 100.241 12.1217 100.61 12.1796C100.999 12.2182 101.335 12.3241 101.617 12.4976C101.899 12.6712 102.115 12.8928 102.267 13.1628C102.419 13.4133 102.451 13.6928 102.364 14.0013C102.321 14.1169 102.267 14.2326 102.202 14.3483C102.159 14.464 102.094 14.5603 102.007 14.6374C101.942 14.7146 101.877 14.7628 101.812 14.7821C101.747 14.7821 101.682 14.7242 101.617 14.6085C101.595 14.5507 101.563 14.4736 101.52 14.3772C101.498 14.2615 101.454 14.1555 101.39 14.0592C101.325 13.9435 101.227 13.8471 101.097 13.7699C100.989 13.6735 100.837 13.6254 100.642 13.6254C100.23 13.6254 99.7647 13.8567 99.2447 14.3194C98.7247 14.7628 98.2265 15.2929 97.7498 15.9097C97.2732 16.5074 96.8616 17.1147 96.515 17.7315C96.1682 18.3291 95.9517 18.7822 95.865 19.0906C95.735 19.5918 95.7458 19.8616 95.8974 19.9002C96.0491 19.9195 96.2874 19.8135 96.6125 19.5822C96.9374 19.3316 97.3057 18.9942 97.7173 18.5701C98.129 18.1459 98.519 17.7315 98.8872 17.3267C99.2555 16.9026 99.5696 16.5363 99.8296 16.2279C100.111 15.9001 100.263 15.7267 100.285 15.7074C100.566 15.5146 100.848 15.4278 101.13 15.4471C101.411 15.4664 101.649 15.5628 101.844 15.7363C102.061 15.8905 102.202 16.0929 102.267 16.3435C102.354 16.5749 102.332 16.8158 102.202 17.0665C102.05 17.3749 101.844 17.7411 101.585 18.1652C101.346 18.5893 101.194 18.9652 101.13 19.293C101.065 19.7943 101.13 20.1219 101.325 20.2761C101.52 20.4304 101.877 20.4207 102.397 20.2473C102.809 20.093 103.242 19.8232 103.697 19.4375C104.152 19.0327 104.596 18.6086 105.029 18.1652C105.484 17.7218 105.907 17.2977 106.297 16.8929C106.687 16.4881 107.011 16.1893 107.271 15.9965C107.337 15.9387 107.412 15.8808 107.499 15.8231C107.607 15.7459 107.694 15.7267 107.759 15.7652C107.867 15.8038 107.921 15.8615 107.921 15.9387C107.943 15.9965 107.954 16.064 107.954 16.1411C107.672 16.7579 107.337 17.3652 106.947 17.9629C106.557 18.5604 106.112 19.1195 105.614 19.64C105.138 20.1412 104.596 20.5943 103.989 20.9991C103.404 21.3846 102.765 21.693 102.072 21.9244C101.639 22.0593 101.249 22.0978 100.902 22.04C100.555 22.0015 100.241 21.8955 99.9596 21.7219C99.678 21.5485 99.4505 21.3268 99.2772 21.0569C99.1038 20.787 98.9846 20.4978 98.9197 20.1894ZM116.637 16.2279C116.875 16.1315 117.016 16.1411 117.059 16.2568C117.125 16.3531 117.113 16.4785 117.027 16.6327C116.897 16.864 116.735 17.0761 116.54 17.2688C116.345 17.4616 116.128 17.6447 115.889 17.8183C115.392 18.2231 114.969 18.5604 114.622 18.8304C114.297 19.0809 114.015 19.2834 113.777 19.4375C113.56 19.5918 113.376 19.7171 113.225 19.8135C113.073 19.9098 112.932 19.9966 112.802 20.0737C112.304 20.3436 111.806 20.6039 111.307 20.8545C110.831 21.1051 110.376 21.2882 109.942 21.4039C109.271 21.5774 108.61 21.5871 107.96 21.4328C107.332 21.2593 106.855 20.9123 106.53 20.3918C106.162 19.7943 106.01 19.1098 106.075 18.3388C106.14 17.5484 106.368 16.7965 106.758 16.0833C107.126 15.3508 107.624 14.7338 108.252 14.2326C108.881 13.7121 109.574 13.4326 110.332 13.3941C110.571 13.3555 110.809 13.423 111.047 13.5965C111.307 13.7507 111.47 13.9338 111.535 14.1458C111.6 14.3194 111.611 14.5122 111.567 14.7242C111.524 14.9363 111.459 15.1772 111.372 15.4471C111.307 15.6977 111.231 15.9772 111.145 16.2857C111.058 16.5942 110.982 16.9122 110.917 17.2399C110.874 17.3556 110.809 17.4231 110.722 17.4424C110.657 17.4424 110.592 17.3942 110.527 17.2977C110.289 16.97 110.137 16.6616 110.072 16.3724C110.029 16.064 109.975 15.7749 109.91 15.5049C109.78 15.5049 109.607 15.6206 109.39 15.8519C109.195 16.064 109 16.3338 108.805 16.6616C108.61 16.9893 108.447 17.3459 108.318 17.7315C108.188 18.0977 108.123 18.4255 108.123 18.7147C108.123 19.1002 108.188 19.3893 108.318 19.5822C108.447 19.775 108.61 19.8906 108.805 19.9291C109 19.9677 109.227 19.958 109.487 19.9002C109.747 19.8424 110.007 19.7557 110.267 19.64C111.416 19.1581 112.521 18.6472 113.582 18.1074C114.644 17.5484 115.662 16.9218 116.637 16.2279ZM123.498 15.9676C122.675 16.5267 121.873 17.0761 121.094 17.6158C120.335 18.1363 119.642 18.7339 119.013 19.4086C118.645 19.8135 118.298 20.2376 117.974 20.681C117.67 21.1051 117.421 21.5389 117.226 21.9823C117.053 22.175 116.847 22.2135 116.609 22.0978C116.088 21.7509 115.731 21.3075 115.536 20.7677C115.341 20.228 115.254 19.6593 115.276 19.0616C115.276 18.4448 115.352 17.8472 115.503 17.2688C115.634 16.6713 115.775 16.1508 115.926 15.7074C116.273 14.5892 116.663 13.4423 117.096 12.2664C117.552 11.0711 118.028 9.89518 118.527 8.73852C119.046 7.58187 119.577 6.46377 120.119 5.38423C120.682 4.30469 121.223 3.30225 121.743 2.37692C122.025 1.89498 122.328 1.47088 122.653 1.10461C122.978 0.738332 123.314 0.43953 123.661 0.208199C123.856 0.073255 124.05 0.00578313 124.245 0.00578313C124.462 -0.0134942 124.657 0.0154222 124.83 0.0925328C125.004 0.169643 125.145 0.28531 125.253 0.43953C125.383 0.574473 125.459 0.719055 125.481 0.873276C125.61 1.70222 125.513 2.65645 125.188 3.736C124.863 4.81554 124.419 5.90472 123.856 7.00354C123.292 8.08309 122.664 9.1048 121.971 10.0687C121.299 11.0132 120.66 11.7651 120.053 12.3241C119.967 12.4012 119.924 12.4591 119.924 12.4976C119.577 13.3073 119.273 14.0976 119.013 14.8688C118.754 15.6399 118.472 16.411 118.169 17.1821C118.125 17.3942 118.071 17.6158 118.006 17.8472C117.962 18.0785 117.942 18.3098 117.942 18.5411C118.179 18.252 118.461 17.9725 118.786 17.7026C119.458 17.1243 120.162 16.5749 120.899 16.0544C121.635 15.5338 122.425 15.0808 123.271 14.6953C123.617 14.541 123.953 14.4254 124.278 14.3483C124.625 14.2519 124.971 14.2519 125.318 14.3483C125.6 14.4062 125.881 14.5026 126.163 14.6374C126.466 14.8303 126.617 15.0326 126.617 15.2447C126.639 15.4567 126.607 15.6977 126.52 15.9676C126.303 16.6809 126.022 17.4616 125.676 18.3098C125.35 19.1581 125.037 19.9677 124.733 20.7388C124.43 21.4907 124.17 22.1364 123.953 22.6762C123.736 23.2353 123.65 23.5726 123.693 23.6883C123.802 23.881 124.007 23.8907 124.311 23.7172C124.635 23.5437 125.015 23.2642 125.448 22.8787C125.903 22.493 126.39 22.0304 126.91 21.4907C127.452 20.9509 127.982 20.4111 128.503 19.8713C129.044 19.3123 129.564 18.7918 130.063 18.3098C130.561 17.8086 130.983 17.4134 131.33 17.1243C131.611 16.8736 131.85 16.7676 132.045 16.8062C132.24 16.8447 132.272 17.0472 132.142 17.4134C131.969 17.6833 131.687 18.0785 131.297 18.599C130.907 19.1002 130.441 19.6593 129.9 20.2761C129.38 20.893 128.817 21.5196 128.211 22.1557C127.604 22.7919 126.997 23.3702 126.39 23.8907C125.805 24.4112 125.242 24.8353 124.701 25.163C124.158 25.51 123.693 25.6835 123.303 25.6835C122.913 25.6835 122.545 25.616 122.198 25.4811C121.873 25.3462 121.591 25.1533 121.353 24.9028C121.115 24.6715 120.931 24.3919 120.801 24.0642C120.692 23.7558 120.66 23.4087 120.704 23.0232C120.725 22.869 120.758 22.7051 120.801 22.5316C120.845 22.3774 120.899 22.1846 120.963 21.9533C121.201 21.3943 121.418 20.8352 121.613 20.2761C121.83 19.7171 122.057 19.1581 122.296 18.599C122.642 17.7893 123.097 16.9508 123.661 16.0833V16.0254C123.661 15.9869 123.607 15.9676 123.498 15.9676ZM120.183 11.3121C120.378 11.1771 120.65 10.888 120.996 10.4446C121.364 10.0012 121.732 9.47107 122.101 8.85418C122.491 8.2373 122.87 7.58187 123.238 6.88788C123.628 6.1746 123.953 5.49026 124.213 4.83482C124.494 4.17937 124.689 3.59142 124.798 3.07092C124.928 2.55042 124.918 2.16487 124.765 1.91427C124.528 2.37692 124.192 3.042 123.758 3.9095C123.346 4.7577 122.913 5.65411 122.458 6.59872C122.003 7.54331 121.559 8.44936 121.126 9.31685C120.714 10.1843 120.4 10.8494 120.183 11.3121Z" fill="#505050"/>
</g>
</svg>
